<svg width="654" height="547" viewBox="0 0 654 547" fill="none" xmlns="http://www.w3.org/2000/svg">
<path fill-rule="evenodd" clip-rule="evenodd" d="M554.5 72.3V0H482.2V20.1H313.4V0H241.1V20.1H72.3V0H0V72.4H20.1V160.9H0V233.3H20.1V321.8H0V394.2H72.3V374H241.1V394.1H313.4V374H482.2V394.1H554.5V321.7H534.4V233.2H554.5V160.8H534.4V72.3H554.5ZM257.2 16.1H297.4V56.3H257.2V16.1ZM16.1 56.3V16.1H56.3V56.3H16.1ZM16.1 217.2V177H56.3V217.2H16.1ZM56.3 378H16.1V337.8H56.3V378ZM297.4 378H257.2V337.8H297.4V378ZM482.2 341.8H313.4V321.7H241.1V341.8H72.3V321.7H52.2V233.2H72.3V160.8H52.2V72.3H72.3V52.2H241.1V72.3H313.4V52.2H482.2V72.3H502.3V160.8H482.2V233.2H502.3V321.7H482.2V341.8ZM538.5 337.8V378H498.3V337.8H538.5ZM538.5 177V217.2H498.3V177H538.5ZM498.3 56.3V16.1H538.5V56.3H498.3ZM281.338 225.841L298.636 214.394C299.992 218.653 308.577 228.769 319.421 228.769C330.264 228.769 335.299 222.846 335.299 218.919C335.299 208.219 324.226 204.447 318.908 202.635C318.04 202.34 317.327 202.096 316.839 201.884C316.588 201.775 316.21 201.63 315.724 201.444C309.809 199.185 287.987 190.847 287.987 166.68C287.987 140.061 313.675 137 319.485 137C323.286 137 341.559 137.466 350.66 154.568L333.878 166.281C330.2 158.827 324.087 156.366 320.324 156.366C311.03 156.366 309.093 163.179 309.093 166.281C309.093 174.984 319.192 178.885 327.718 182.179L327.725 182.181C329.953 183.042 332.074 183.861 333.878 184.714C343.173 189.106 356.857 196.294 356.857 218.919C356.857 230.252 347.352 248.6 323.422 248.6C291.278 248.6 282.758 229.301 281.338 225.841ZM215.458 216.673L197.429 228.113C199.043 234.366 209 248.6 232.949 248.6C258.998 248.6 264.9 227.315 264.541 216.673V139.517H242.368V216.673C242.368 220.597 238.291 228.779 230.325 228.779C222.361 228.779 216.871 220.93 215.458 216.673Z" fill="url(#paint0_linear_9_325)" style=""/>
<path fill-rule="evenodd" clip-rule="evenodd" d="M575.4 491.4H653.2L519.8 357.9L575.4 491.4Z" fill="white" style="fill:white;fill:white;fill-opacity:1;"/>
<path fill-rule="evenodd" clip-rule="evenodd" d="M519.8 357.9V546.9L575.3 491.3" fill="white" style="fill:white;fill:white;fill-opacity:1;"/>
<defs>
<linearGradient id="paint0_linear_9_325" x1="554.5" y1="394.2" x2="554.5" y2="0" gradientUnits="userSpaceOnUse">
<stop stop-color="#1D40B2" style="stop-color:#1D40B2;stop-color:color(display-p3 0.1137 0.2510 0.6980);stop-opacity:1;"/>
<stop offset="1" stop-color="#1680D6" style="stop-color:#1680D6;stop-color:color(display-p3 0.0863 0.5020 0.8392);stop-opacity:1;"/>
</linearGradient>
</defs>
</svg>
